<svg version="1.1" viewBox="0 0 32 32" xmlns="http://www.w3.org/2000/svg" xmlns:xlink="http://www.w3.org/1999/xlink" overflow="hidden"><path d=" M 27.759 0 L 19.811 0 C 17.4699 0.00275521 15.5728 1.8999 15.57 4.241 L 15.57 9.688 L 5.675 9.688 C 2.546 9.688 0.001 12.241 0.001 15.38 L 0.001 20.941 C 0.001 24.08 2.549 26.635 5.675 26.635 L 7.814 26.635 L 10.789 31.789 C 10.9079 31.99 11.166 32.0585 11.369 31.943 C 11.5728 31.8254 11.6427 31.5649 11.5251 31.3611 C 11.525 31.3611 11.525 31.361 11.525 31.361 L 8.307 25.785 L 5.675 25.785 C 3.015 25.785 0.851 23.611 0.851 20.941 L 0.851 15.378 C 0.851 12.71 3.013 10.534 5.673 10.534 L 16.594 10.534 C 19.276 10.534 21.46 12.708 21.46 15.378 L 21.46 20.939 C 21.46 23.609 19.278 25.783 16.594 25.783 L 11.812 25.783 C 11.5784 25.7824 11.3886 25.9714 11.388 26.205 C 11.388 26.2057 11.388 26.2063 11.388 26.207 C 11.388 26.442 11.579 26.633 11.814 26.633 L 16.596 26.633 C 19.747 26.633 22.311 24.079 22.311 20.939 L 22.311 15.378 C 22.3099 14.3499 22.0281 13.3417 21.496 12.462 L 24.084 12.462 C 24.3187 12.4626 24.5094 12.2727 24.51 12.038 C 24.5106 11.8033 24.3207 11.6126 24.086 11.612 L 20.875 11.612 C 19.7925 10.3864 18.2362 9.68435 16.601 9.684 L 16.427 9.684 L 16.427 4.237 C 16.4281 2.36544 17.9444 0.848206 19.816 0.846 L 27.764 0.846 C 29.6341 0.848757 31.1489 2.36493 31.15 4.235 L 31.15 8.224 C 31.1489 10.0941 29.6341 11.6102 27.764 11.613 L 27.032 11.613 L 24.623 15.783 C 24.5048 15.9845 24.5723 16.2437 24.7738 16.3619 C 24.84 16.4007 24.9154 16.4207 24.992 16.42 C 25.139 16.42 25.282 16.345 25.361 16.207 L 27.523 12.461 L 27.761 12.461 C 30.1012 12.4577 31.9969 10.5602 31.998 8.22 L 31.998 4.232 C 31.9919 1.89373 30.0953 0.0010942 27.757 -1.25885e-07 L 27.759 0 Z" fill="#9855D4"/><path d=" M 24.489 5.607 C 23.959 6.143 23.673 6.591 23.673 7.426 C 23.673 7.65962 23.8624 7.849 24.096 7.849 C 24.3296 7.849 24.519 7.65962 24.519 7.426 C 24.519 6.88 24.67 6.632 25.139 6.157 C 25.536 5.755 25.95 5.339 26.091 4.669 C 26.1992 4.1635 26.0784 3.63601 25.761 3.228 C 25.3905 2.75631 24.8349 2.467 24.236 2.434 C 23.559 2.4 22.955 2.618 22.543 3.054 C 22.141 3.485 21.961 4.088 22.04 4.754 C 22.0736 4.9841 22.2815 5.14759 22.513 5.126 C 22.7451 5.09965 22.9119 4.89012 22.8856 4.65799 C 22.8854 4.65633 22.8852 4.65466 22.885 4.653 C 22.835 4.234 22.93 3.885 23.163 3.639 C 23.401 3.388 23.763 3.262 24.19 3.284 C 24.539 3.304 24.884 3.482 25.088 3.748 C 25.2536 3.95863 25.317 4.23198 25.261 4.494 C 25.17 4.921 24.892 5.203 24.487 5.61 L 24.489 5.607 Z" fill="#9855D4"/><circle cx="24.085" cy="9.436" r="0.595" fill="#9855D4"/><circle cx="15.807" cy="18.16" r="1.019" fill="#9855D4"/><circle cx="11.156" cy="18.159" r="1.019" fill="#9855D4"/><circle cx="6.51" cy="18.159" r="1.019" fill="#9855D4"/></svg>