<svg version="1.1" viewBox="0 0 32 32" xmlns="http://www.w3.org/2000/svg" xmlns:xlink="http://www.w3.org/1999/xlink" overflow="hidden"><circle cx="7.928" cy="14.96" r="0.615" fill="#9855D4"/><circle cx="14.511" cy="14.96" r="0.615" fill="#9855D4"/><circle cx="21.472" cy="4.053" r="0.615" fill="#9855D4"/><circle cx="26.391" cy="4.053" r="0.615" fill="#9855D4"/><path d=" M 27.759 0 L 19.814 0 C 17.4727 0.00220516 15.5752 1.89967 15.573 4.241 L 15.573 9.56 L 5.726 9.56 C 2.56515 9.56276 0.00330784 12.1242 -1.67847e-07 15.285 L 0 20.83 C 0.00330708 23.9921 2.56588 26.5547 5.728 26.558 L 7.94 26.558 L 10.83 31.783 C 10.909 31.923 11.054 32 11.204 32 C 11.275 31.9996 11.3449 31.9825 11.408 31.95 C 11.6132 31.8351 11.688 31.5767 11.576 31.37 L 8.442 25.708 L 5.726 25.708 C 3.0331 25.7052 0.850756 23.5229 0.848 20.83 L 0.848 15.287 C 0.851306 12.5943 3.03333 10.4123 5.726 10.409 L 16.713 10.409 C 19.4057 10.4123 21.5877 12.5943 21.591 15.287 L 21.591 20.832 C 21.5877 23.5247 19.4057 25.7067 16.713 25.71 L 11.902 25.71 C 11.667 25.71 11.478 25.899 11.478 26.134 C 11.478 26.369 11.667 26.558 11.902 26.558 L 16.713 26.558 C 19.8735 26.5541 22.4342 23.9925 22.437 20.832 L 22.437 15.287 C 22.4375 14.2992 22.1797 13.3284 21.689 12.471 L 24.083 12.471 C 24.3186 12.471 24.5095 12.28 24.5095 12.0445 C 24.5095 11.809 24.3186 11.618 24.083 11.618 L 21.1 11.618 C 20.0148 10.3131 18.4052 9.55881 16.708 9.56 L 16.42 9.56 L 16.42 4.24 C 16.4222 2.36971 17.9387 0.85455 19.809 0.854 L 27.754 0.854 C 29.6246 0.854549 31.1417 2.36938 31.145 4.24 L 31.145 8.229 C 31.1433 10.1 29.627 11.6163 27.756 11.618 L 27.03 11.618 L 24.621 15.788 C 24.5034 15.9918 24.5732 16.2524 24.777 16.37 C 24.9808 16.4876 25.2414 16.4178 25.359 16.214 L 27.521 12.468 L 27.759 12.468 C 30.1001 12.4652 31.9972 10.5681 32 8.227 L 32 4.237 C 31.9961 1.89701 30.099 0.0016509 27.759 -1.14441e-08 Z" fill="#9855D4"/><path d=" M 21.47 8.619 C 21.7053 8.619 21.896 8.42827 21.896 8.193 C 21.9312 7.0691 22.8709 6.18657 23.9948 6.22181 C 25.0692 6.25549 25.9323 7.1186 25.966 8.193 C 25.9499 8.42717 26.1267 8.63005 26.3609 8.64614 C 26.595 8.66223 26.7979 8.48544 26.814 8.25128 C 26.8153 8.23187 26.8153 8.2124 26.814 8.193 C 26.7843 6.59994 25.4689 5.33255 23.8758 5.36221 C 22.3245 5.3911 21.0739 6.64172 21.045 8.193 C 21.045 8.428 21.238 8.619 21.472 8.619 L 21.47 8.619 Z M 11.22 21.202 C 13.2714 21.1998 14.9338 19.5374 14.936 17.486 C 14.9354 17.2513 14.7447 17.0614 14.51 17.062 C 14.2753 17.0614 14.0846 17.2513 14.084 17.486 C 14.084 19.065 12.798 20.352 11.218 20.352 C 9.638 20.352 8.352 19.066 8.352 17.486 C 8.35145 17.2513 8.16072 17.0614 7.926 17.062 C 7.69128 17.0614 7.50056 17.2513 7.5 17.486 C 7.50496 19.5382 9.16881 21.1998 11.221 21.202 L 11.22 21.202 Z" fill="#9855D4"/></svg>