<svg version="1.1" viewBox="0 0 32 32" xmlns="http://www.w3.org/2000/svg" xmlns:xlink="http://www.w3.org/1999/xlink" overflow="hidden"><path d=" M 25.723 0 C 22.263 0 19.449 2.816 19.449 6.277 C 19.449 9.738 22.265 12.552 25.724 12.552 L 25.721 12.555 C 29.184 12.555 31.998 9.739 31.998 6.278 C 31.998 2.817 29.182 0 25.723 0 Z M 25.723 11.702 C 22.728 11.6987 20.3012 9.271 20.299 6.276 C 20.3018 3.28184 22.7268 0.85451 25.721 0.849 L 25.721 0.852 C 28.7167 0.854756 31.1447 3.28228 31.148 6.278 C 31.1452 9.27284 28.7178 11.6998 25.723 11.702 Z" fill="#9855D4"/><path d=" M 28.656 8.717 L 26.125 2.666 C 26.0349 2.44927 25.7861 2.34665 25.5694 2.43678 C 25.4664 2.47961 25.3844 2.56122 25.341 2.664 L 22.793 8.711 C 22.7006 8.92618 22.8002 9.1755 23.0154 9.26788 C 23.0162 9.26825 23.0171 9.26863 23.018 9.269 L 23.016 9.271 C 23.2322 9.36183 23.4812 9.26081 23.573 9.045 L 24.16 7.659 L 27.294 7.659 L 27.872 9.045 C 27.9624 9.26103 28.2108 9.36288 28.4268 9.27251 C 28.4272 9.27234 28.4276 9.27217 28.428 9.272 C 28.6435 9.18335 28.7464 8.93674 28.6578 8.7212 C 28.6572 8.7198 28.6566 8.7184 28.656 8.717 Z M 24.515 6.808 L 25.73 3.928 L 25.732 3.928 L 26.935 6.808 L 24.515 6.808 Z M 12.075 19.505 L 12.078 19.502 L 0.429 19.502 C 0.194115 19.5014 0.00310208 19.6911 0.00199999 19.926 L 0.002 31.575 C 0.002 31.809 0.193 32 0.427 32 L 12.076 32 C 12.3096 32.0006 12.4994 31.8116 12.5 31.578 C 12.5 31.5773 12.5 31.5767 12.5 31.576 L 12.5 19.927 C 12.4984 19.6935 12.3086 19.505 12.075 19.505 Z M 11.651 31.15 L 0.851 31.15 L 0.851 20.353 L 11.65 20.353 L 11.65 31.15 Z" fill="#9855D4"/><path d=" M 3.158 24.409 L 7.435 24.409 C 7.447 25.033 7.356 26.326 6.513 27.292 C 6.429 27.383 6.325 27.451 6.233 27.533 C 5.78 27.117 5.449 26.574 5.256 25.897 C 5.19138 25.6711 4.95588 25.5404 4.73 25.605 C 4.50412 25.6696 4.37338 25.9051 4.438 26.131 C 4.619 26.763 4.958 27.442 5.521 28.017 C 4.892 28.332 4.13 28.511 3.208 28.511 C 2.97381 28.5268 2.79679 28.7295 2.8126 28.9637 C 2.8269 29.1754 2.99526 29.3442 3.207 29.359 C 4.431 29.359 5.441 29.094 6.244 28.593 C 6.973 29.051 7.949 29.361 9.294 29.361 C 9.52706 29.361 9.716 29.1721 9.716 28.939 C 9.716 28.7059 9.52706 28.517 9.294 28.517 C 8.359 28.517 7.584 28.346 6.956 28.026 C 7.016 27.966 7.09 27.92 7.149 27.855 C 8.175 26.685 8.295 25.173 8.284 24.414 L 9.343 24.414 C 9.57713 24.3974 9.75345 24.1941 9.73681 23.9599 C 9.72177 23.7482 9.5528 23.58 9.341 23.566 L 6.671 23.566 L 6.671 22.572 C 6.67045 22.3373 6.47972 22.1474 6.245 22.148 C 6.01028 22.1474 5.81956 22.3373 5.819 22.572 L 5.819 23.568 L 3.156 23.568 C 2.92073 23.568 2.73 23.7587 2.73 23.994 C 2.73 24.229 2.921 24.416 3.156 24.416 L 3.158 24.409 Z M 0.426 16.454 C 0.661273 16.454 0.852 16.2633 0.852 16.028 L 0.852 6.391 C 0.852 5.494 1.579 4.765 2.474 4.765 L 14.986 4.765 L 11.798 7.956 C 11.6323 8.11834 11.6296 8.38425 11.7919 8.54994 C 11.7939 8.55198 11.796 8.554 11.798 8.556 C 11.8778 8.63637 11.9867 8.68108 12.1 8.68 C 12.2119 8.68001 12.3191 8.63538 12.398 8.556 L 16.313 4.642 C 16.3525 4.6029 16.3837 4.55633 16.405 4.505 C 16.4279 4.45375 16.4395 4.39815 16.439 4.342 C 16.4399 4.28581 16.4283 4.23013 16.405 4.179 C 16.3856 4.12696 16.3544 4.08008 16.314 4.042 L 12.395 0.128 C 12.2327 -0.0376854 11.9667 -0.0403991 11.8011 0.121939 C 11.799 0.123939 11.797 0.125959 11.795 0.128 C 11.6293 0.290338 11.6266 0.556253 11.7889 0.721939 C 11.7909 0.72398 11.793 0.726 11.795 0.728 L 14.983 3.916 L 2.474 3.916 C 1.10889 3.9182 0.00310088 5.02488 0.00199998 6.39 L 0.002 16.028 C 0.002 16.263 0.191 16.454 0.426 16.454 Z M 31.574 15.549 C 31.3393 15.5496 31.1494 15.7403 31.15 15.975 L 31.15 25.613 C 31.15 26.51 30.421 27.239 29.524 27.239 L 17.012 27.239 L 20.2 24.05 C 20.3665 23.8843 20.3672 23.615 20.2015 23.4485 C 20.0358 23.282 19.7665 23.2813 19.6 23.447 L 15.683 27.361 C 15.673 27.371 15.67 27.384 15.66 27.395 C 15.632 27.429 15.606 27.459 15.59 27.499 C 15.5443 27.6032 15.5443 27.7218 15.59 27.826 C 15.607 27.865 15.632 27.896 15.657 27.93 C 15.667 27.94 15.674 27.955 15.682 27.964 L 19.596 31.878 C 19.7643 32.0409 20.0318 32.04 20.199 31.876 C 20.3655 31.7114 20.367 31.4429 20.2024 31.2764 C 20.2013 31.2752 20.2001 31.2741 20.199 31.273 L 17.009 28.088 L 29.523 28.088 C 30.8889 28.0869 31.9959 26.9799 31.997 25.614 L 31.997 15.976 C 31.9981 15.7402 31.8078 15.5481 31.572 15.547 C 31.5717 15.547 31.5713 15.547 31.571 15.547 L 31.574 15.549 Z" fill="#9855D4"/></svg>